<svg width="720" height="623" viewBox="0 0 720 623" fill="none" xmlns="http://www.w3.org/2000/svg">
<path d="M64.6143 204.223C64.6143 204.223 65.1416 203.809 66.1707 203.011C66.6833 202.604 67.3242 202.103 68.075 201.513C68.8403 200.927 69.6973 200.209 70.7373 199.495C72.7991 198.045 75.2966 196.177 78.4058 194.244C79.1785 193.746 79.9768 193.229 80.8008 192.695C81.6357 192.178 82.522 191.677 83.4265 191.146C85.2429 190.091 87.1509 188.934 89.2603 187.872C97.5696 183.422 108.087 178.761 120.623 174.787C133.173 170.905 147.708 167.598 163.81 165.855C167.823 165.332 171.943 165.075 176.14 164.702C178.239 164.592 180.363 164.478 182.501 164.365C183.574 164.313 184.647 164.229 185.728 164.207C186.808 164.185 187.892 164.156 188.983 164.134C190.074 164.108 191.169 164.083 192.268 164.057C192.817 164.046 193.37 164.028 193.92 164.017C194.473 164.013 195.022 164.017 195.579 164.024C197.794 164.028 200.032 164.039 202.284 164.05C203.412 164.046 204.543 164.101 205.675 164.134C206.81 164.171 207.946 164.207 209.088 164.248C210.234 164.281 211.377 164.321 212.527 164.354C213.677 164.423 214.827 164.489 215.988 164.555C225.249 165.013 234.73 165.987 244.391 167.196C246.797 167.525 249.225 167.858 251.66 168.184C254.095 168.551 256.531 168.972 258.984 169.36C260.208 169.561 261.434 169.763 262.665 169.96C263.892 170.191 265.122 170.422 266.356 170.653C268.817 171.118 271.296 171.557 273.779 172.052C278.719 173.106 283.726 174.095 288.713 175.307C289.966 175.6 291.215 175.893 292.471 176.186C293.73 176.479 294.983 176.772 296.232 177.102C298.733 177.742 301.249 178.391 303.768 179.035L305.662 179.522L307.544 180.05C308.8 180.397 310.06 180.753 311.32 181.101C312.579 181.456 313.839 181.804 315.103 182.159L317 182.694L318.889 183.261C321.409 184.019 323.925 184.785 326.455 185.55L328.359 186.129L330.242 186.74C331.501 187.15 332.765 187.557 334.025 187.967C339.086 189.593 344.125 191.289 349.171 193.046C354.218 194.782 359.268 196.566 364.318 198.364C374.425 201.967 384.54 205.659 394.658 209.324C414.888 216.678 435.15 223.922 455.376 230.158C460.437 231.7 465.476 233.223 470.526 234.622C473.046 235.355 475.576 236.014 478.088 236.702C480.608 237.358 483.124 238.032 485.636 238.651C495.696 241.148 505.704 243.316 515.632 244.986C516.874 245.195 518.104 245.404 519.342 245.612C520.583 245.795 521.818 245.982 523.055 246.169C525.516 246.557 527.981 246.843 530.431 247.176C531.65 247.337 532.885 247.454 534.104 247.601C535.323 247.733 536.543 247.89 537.759 247.996C540.198 248.216 542.618 248.48 545.028 248.63C554.685 249.351 564.166 249.615 573.387 249.296C591.823 248.699 609.159 246.011 624.723 241.906C632.512 239.87 639.862 237.479 646.75 234.937C648.464 234.282 650.167 233.674 651.826 233C653.481 232.323 655.118 231.66 656.726 231C658.33 230.327 659.886 229.613 661.439 228.939C662.208 228.594 662.977 228.276 663.732 227.913C664.486 227.562 665.229 227.207 665.969 226.859C671.913 224.101 677.318 221.193 682.288 218.472C683.514 217.766 684.719 217.073 685.898 216.392C687.074 215.711 688.239 215.067 689.341 214.378C690.45 213.701 691.534 213.042 692.593 212.393C693.647 211.749 694.684 211.123 695.669 210.478C697.635 209.196 699.518 208.002 701.268 206.845C703 205.67 704.626 204.56 706.139 203.538C706.897 203.026 707.618 202.52 708.303 202.026C708.988 201.531 709.647 201.063 710.277 200.609C711.537 199.708 712.683 198.887 713.708 198.151C717.744 195.119 719.894 193.5 719.894 193.5C719.894 193.5 717.766 195.152 713.778 198.247C709.724 201.25 703.821 205.732 695.896 210.844C694.926 211.507 693.896 212.141 692.845 212.8C691.794 213.459 690.714 214.133 689.612 214.825C688.513 215.528 687.356 216.191 686.188 216.887C685.012 217.579 683.815 218.289 682.592 219.007C677.64 221.798 672.257 224.779 666.324 227.606C654.532 233.381 640.682 238.892 625.049 243.122C609.426 247.359 591.995 250.19 573.446 250.926C554.894 251.655 535.261 250.289 515.306 246.927C495.33 243.616 475.023 238.446 454.742 232.224C434.454 225.987 414.141 218.762 393.896 211.423C383.782 207.742 373.671 204.044 363.582 200.429C358.539 198.624 353.492 196.84 348.461 195.097C343.429 193.343 338.39 191.64 333.358 190.018C323.313 186.696 313.235 183.759 303.237 181.038C300.729 180.386 298.228 179.735 295.737 179.086C294.492 178.75 293.24 178.453 291.991 178.16C290.742 177.867 289.493 177.57 288.252 177.27C283.286 176.04 278.309 175.043 273.391 173.978C270.919 173.476 268.451 173.026 266.001 172.553C264.774 172.319 263.555 172.088 262.335 171.857C261.108 171.649 259.882 171.447 258.669 171.242C256.227 170.843 253.799 170.422 251.378 170.041C248.958 169.697 246.544 169.349 244.149 169.005C234.543 167.734 225.106 166.694 215.892 166.177C214.742 166.104 213.593 166.024 212.45 165.95C211.307 165.906 210.161 165.863 209.026 165.815C207.891 165.771 206.759 165.727 205.627 165.683C204.5 165.643 203.375 165.573 202.255 165.573C200.01 165.551 197.791 165.526 195.579 165.496C195.029 165.496 194.476 165.478 193.931 165.485C193.381 165.489 192.836 165.5 192.283 165.515C191.188 165.529 190.104 165.548 189.016 165.562C187.932 165.581 186.848 165.599 185.771 165.621C184.698 165.632 183.625 165.705 182.563 165.749C180.432 165.844 178.315 165.947 176.224 166.042C172.053 166.379 167.941 166.61 163.942 167.1C162.942 167.207 161.946 167.313 160.957 167.419C160.463 167.474 159.968 167.525 159.474 167.576C158.983 167.642 158.492 167.716 158.005 167.785C156.053 168.056 154.124 168.331 152.212 168.594C151.256 168.719 150.319 168.891 149.377 169.056C148.44 169.217 147.506 169.382 146.58 169.547C145.657 169.704 144.734 169.865 143.818 170.023C142.899 170.173 142.002 170.389 141.101 170.561C139.303 170.938 137.531 171.304 135.776 171.671C134.037 172.073 132.33 172.502 130.635 172.912C129.792 173.121 128.954 173.322 128.123 173.527C127.291 173.747 126.475 173.989 125.665 174.219C124.039 174.677 122.439 175.128 120.864 175.574C108.333 179.387 97.8003 183.917 89.4617 188.253C87.3486 189.289 85.4297 190.417 83.6023 191.453C82.6978 191.977 81.8042 192.453 80.9583 192.959C80.127 193.482 79.325 193.984 78.5486 194.467C75.4138 196.35 72.8943 198.173 70.8105 199.591C69.7595 200.286 68.8916 200.997 68.1226 201.568C67.3572 202.15 66.709 202.637 66.189 203.033C65.1453 203.82 64.6143 204.223 64.6143 204.223Z" fill="#2C2D4D"/>
<path d="M64.6143 234.549C64.6143 234.549 65.1453 234.139 66.1743 233.341C66.687 232.941 67.3279 232.447 68.0896 231.857C68.8586 231.279 69.7083 230.557 70.7593 229.851C72.821 228.404 75.3296 226.547 78.446 224.625C79.2151 224.138 80.0134 223.625 80.8411 223.094C81.6797 222.578 82.5696 222.083 83.4741 221.549C85.2905 220.505 87.2021 219.351 89.3042 218.293C97.6208 213.869 108.138 209.222 120.67 205.274C133.224 201.429 147.748 198.155 163.832 196.43C167.845 195.917 171.969 195.665 176.158 195.299C178.253 195.192 180.374 195.079 182.512 194.969C183.578 194.921 184.655 194.837 185.735 194.822C186.812 194.793 187.899 194.771 188.99 194.749C190.082 194.727 191.169 194.698 192.272 194.676C192.817 194.665 193.37 194.654 193.92 194.636C194.473 194.632 195.029 194.643 195.579 194.643C197.794 194.658 200.028 194.669 202.277 194.687C203.408 194.676 204.532 194.738 205.664 194.771C206.799 194.812 207.935 194.848 209.077 194.888C210.216 194.929 211.366 194.969 212.512 195.006C213.658 195.075 214.812 195.141 215.969 195.211C225.22 195.676 234.69 196.665 244.34 197.888C246.746 198.217 249.17 198.551 251.605 198.887C254.033 199.254 256.469 199.675 258.922 200.067C260.142 200.272 261.368 200.473 262.599 200.671C263.826 200.902 265.056 201.132 266.283 201.367C268.744 201.835 271.219 202.279 273.699 202.773C278.635 203.831 283.634 204.82 288.618 206.047C289.867 206.34 291.119 206.629 292.375 206.922C293.628 207.215 294.88 207.512 296.129 207.845C298.627 208.493 301.139 209.138 303.655 209.786L305.548 210.273L307.427 210.797C308.683 211.152 309.943 211.507 311.202 211.855C312.455 212.21 313.718 212.562 314.978 212.917L316.875 213.452L318.757 214.019C321.273 214.785 323.796 215.543 326.323 216.308L328.217 216.887L330.106 217.502C331.366 217.912 332.626 218.315 333.885 218.725C338.939 220.347 343.978 222.043 349.025 223.797C354.075 225.537 359.117 227.32 364.167 229.118C374.271 232.718 384.39 236.406 394.512 240.072C414.738 247.432 435.011 254.676 455.24 260.924C475.474 267.149 495.685 272.371 515.563 275.715C516.808 275.916 518.042 276.125 519.28 276.33C520.525 276.517 521.759 276.696 522.997 276.883C525.461 277.271 527.93 277.557 530.38 277.89C531.614 278.048 532.837 278.165 534.06 278.311C535.283 278.436 536.506 278.593 537.726 278.699C540.161 278.912 542.589 279.176 545.006 279.329C554.674 280.032 564.166 280.285 573.395 279.948C591.855 279.322 609.21 276.612 624.792 272.481C632.585 270.423 639.935 268.024 646.824 265.468C648.538 264.805 650.248 264.197 651.899 263.516C653.558 262.843 655.192 262.165 656.803 261.51C658.4 260.828 659.963 260.114 661.512 259.433C662.281 259.089 663.058 258.763 663.805 258.404C664.559 258.049 665.303 257.697 666.042 257.342C671.986 254.573 677.384 251.655 682.357 248.919C683.584 248.209 684.785 247.513 685.961 246.832C687.136 246.147 688.301 245.499 689.403 244.807C690.509 244.125 691.597 243.463 692.648 242.818C693.706 242.17 694.739 241.547 695.724 240.892C703.682 235.856 709.64 231.458 713.73 228.507C717.751 225.456 719.894 223.834 719.894 223.834C719.894 223.834 717.762 225.474 713.763 228.551C709.698 231.535 703.77 235.985 695.841 241.086C694.863 241.741 693.834 242.371 692.783 243.031C691.732 243.69 690.652 244.364 689.55 245.048C688.451 245.751 687.294 246.411 686.118 247.103C684.95 247.795 683.752 248.494 682.526 249.216C677.571 251.995 672.184 254.962 666.251 257.781C654.456 263.527 640.602 268.999 624.983 273.206C609.371 277.421 591.962 280.223 573.431 280.926C554.905 281.633 535.302 280.241 515.372 276.854C495.421 273.532 475.148 268.325 454.871 262.117C434.594 255.885 414.294 248.67 394.05 241.331C383.932 237.647 373.828 233.948 363.735 230.334C358.689 228.529 353.646 226.745 348.607 224.995C343.575 223.24 338.536 221.538 333.497 219.912C332.245 219.501 330.985 219.091 329.729 218.688L327.847 218.07L325.957 217.491C323.438 216.726 320.918 215.96 318.409 215.195L316.531 214.627L314.641 214.089C313.381 213.734 312.122 213.378 310.869 213.023C309.617 212.672 308.361 212.316 307.108 211.968L305.229 211.437L303.344 210.95C300.839 210.299 298.334 209.65 295.836 209.002C294.595 208.665 293.342 208.369 292.094 208.083C290.845 207.783 289.596 207.49 288.347 207.193C283.378 205.966 278.394 204.97 273.468 203.908C271 203.414 268.524 202.963 266.074 202.498C264.847 202.26 263.621 202.03 262.401 201.799C261.174 201.597 259.951 201.396 258.728 201.195C256.289 200.795 253.861 200.371 251.437 200.001C249.012 199.653 246.595 199.309 244.2 198.972C234.576 197.712 225.135 196.683 215.907 196.181C214.761 196.108 213.607 196.035 212.468 195.961C211.318 195.917 210.179 195.874 209.041 195.83C207.902 195.789 206.77 195.745 205.638 195.698C204.51 195.665 203.386 195.599 202.262 195.603C200.017 195.577 197.791 195.551 195.579 195.529C195.029 195.526 194.476 195.515 193.927 195.518C193.381 195.529 192.828 195.537 192.279 195.548C191.188 195.57 190.096 195.588 189.012 195.61C187.921 195.624 186.841 195.643 185.76 195.665C184.688 195.676 183.618 195.756 182.549 195.8C180.417 195.903 178.301 196.002 176.206 196.104C172.028 196.448 167.919 196.683 163.916 197.177C147.872 198.847 133.37 201.993 120.813 205.736C108.285 209.577 97.7527 214.133 89.4104 218.491C87.2974 219.531 85.3784 220.666 83.5583 221.702C82.6538 222.222 81.7566 222.713 80.9216 223.218C80.0867 223.742 79.2883 224.248 78.512 224.738C75.3882 226.632 72.8687 228.466 70.7922 229.895C69.7412 230.598 68.8806 231.304 68.1116 231.879C67.3462 232.465 66.7053 232.96 66.189 233.352C65.1453 234.146 64.6143 234.549 64.6143 234.549Z" fill="#2C2D4D"/>
<path d="M64.6143 264.882C64.6143 264.882 65.1416 264.465 66.1707 263.663C66.6833 263.264 67.3242 262.762 68.075 262.172C68.8403 261.586 69.6973 260.869 70.7373 260.155C72.7991 258.704 75.2966 256.837 78.4058 254.896C79.1785 254.401 79.9768 253.889 80.8008 253.354C81.6357 252.83 82.522 252.336 83.4265 251.801C85.2429 250.747 87.1509 249.593 89.2603 248.531C97.5696 244.082 108.087 239.416 120.623 235.439C133.173 231.557 147.708 228.258 163.81 226.511C167.823 225.991 171.943 225.727 176.14 225.361C178.239 225.251 180.363 225.137 182.501 225.02C183.574 224.969 184.647 224.888 185.728 224.866C186.808 224.837 187.892 224.815 188.983 224.79C190.074 224.768 191.169 224.738 192.268 224.716C192.817 224.698 193.37 224.687 193.92 224.676C194.473 224.665 195.022 224.676 195.579 224.676C197.794 224.687 200.032 224.698 202.284 224.709C203.412 224.698 204.543 224.76 205.675 224.79C206.81 224.826 207.946 224.863 209.088 224.899C210.234 224.94 211.377 224.973 212.527 225.013C213.677 225.083 214.827 225.148 215.988 225.211C225.249 225.665 234.73 226.643 244.391 227.855C246.797 228.181 249.225 228.51 251.66 228.844C254.095 229.202 256.531 229.624 258.984 230.019C260.208 230.213 261.434 230.418 262.665 230.62C263.892 230.85 265.122 231.074 266.356 231.304C268.817 231.773 271.296 232.213 273.779 232.711C278.719 233.762 283.726 234.747 288.713 235.966C289.966 236.259 291.215 236.552 292.471 236.845C293.73 237.131 294.983 237.431 296.232 237.761C298.733 238.402 301.249 239.042 303.768 239.691L305.662 240.178L307.544 240.701C308.8 241.057 310.06 241.405 311.32 241.76C312.579 242.108 313.839 242.463 315.103 242.811L317 243.345L318.889 243.913C321.409 244.678 323.925 245.437 326.455 246.209L328.359 246.781L330.242 247.396C331.501 247.806 332.765 248.216 334.025 248.626C339.086 250.245 344.125 251.944 349.171 253.698C354.218 255.441 359.268 257.218 364.318 259.023C374.425 262.626 384.54 266.318 394.658 269.984C414.888 277.337 435.15 284.577 455.376 290.817C460.437 292.359 465.476 293.883 470.526 295.282C473.046 296.007 475.576 296.669 478.088 297.358C480.608 298.013 483.124 298.684 485.636 299.302C495.696 301.8 505.704 303.975 515.632 305.642C516.874 305.847 518.104 306.055 519.342 306.264C520.583 306.451 521.818 306.634 523.055 306.821C525.516 307.216 527.981 307.502 530.431 307.835C531.65 307.996 532.885 308.114 534.104 308.256C535.323 308.385 536.543 308.549 537.759 308.648C540.198 308.868 542.618 309.139 545.028 309.289C554.685 310.011 564.166 310.274 573.387 309.952C591.823 309.359 609.159 306.671 624.723 302.565C632.512 300.522 639.862 298.134 646.75 295.593C648.464 294.934 650.167 294.333 651.826 293.656C653.481 292.982 655.118 292.312 656.726 291.656C658.33 290.982 659.886 290.272 661.439 289.598C662.208 289.254 662.977 288.928 663.732 288.573C664.486 288.221 665.229 287.866 665.969 287.518C671.913 284.76 677.318 281.853 682.288 279.128C683.514 278.425 684.719 277.733 685.898 277.052C687.074 276.37 688.239 275.726 689.341 275.034C690.45 274.356 691.534 273.693 692.593 273.049C693.647 272.408 694.684 271.782 695.669 271.137C697.635 269.852 699.518 268.654 701.268 267.497C703 266.322 704.626 265.219 706.139 264.19C706.897 263.685 707.618 263.179 708.303 262.678C708.988 262.191 709.647 261.718 710.277 261.268C711.537 260.36 712.683 259.539 713.708 258.811C717.744 255.778 719.894 254.16 719.894 254.16C719.894 254.16 717.766 255.811 713.778 258.906C709.724 261.901 703.821 266.391 695.896 271.5C694.926 272.159 693.896 272.796 692.845 273.452C691.794 274.111 690.714 274.792 689.612 275.477C688.513 276.187 687.356 276.843 686.188 277.542C685.012 278.231 683.815 278.941 682.592 279.666C677.64 282.457 672.257 285.43 666.324 288.265C654.532 294.04 640.682 299.552 625.049 303.778C609.426 308.018 591.995 310.849 573.446 311.578C554.894 312.314 535.261 310.948 515.306 307.579C495.33 304.268 475.023 299.105 454.742 292.883C434.454 286.646 414.141 279.417 393.896 272.082C383.782 268.398 373.671 264.696 363.582 261.088C358.539 259.283 353.492 257.492 348.461 255.749C343.429 254.002 338.39 252.292 333.358 250.673C323.313 247.348 313.235 244.418 303.237 241.698C300.729 241.046 298.228 240.394 295.737 239.742C294.492 239.409 293.24 239.112 291.991 238.819C290.742 238.519 289.493 238.229 288.252 237.929C283.286 236.699 278.309 235.699 273.391 234.63C270.919 234.128 268.451 233.685 266.001 233.205C264.774 232.974 263.555 232.74 262.335 232.509C261.108 232.308 259.882 232.099 258.669 231.898C256.227 231.499 253.799 231.074 251.378 230.7C248.958 230.349 246.544 230.001 244.149 229.656C234.543 228.386 225.106 227.346 215.892 226.829C214.742 226.756 213.593 226.683 212.45 226.61C211.307 226.566 210.161 226.522 209.026 226.474C207.891 226.43 206.759 226.386 205.627 226.339C204.5 226.302 203.375 226.232 202.255 226.232C200.01 226.207 197.791 226.177 195.579 226.156C195.029 226.148 194.476 226.134 193.931 226.137C193.381 226.148 192.836 226.156 192.283 226.167C191.188 226.181 190.104 226.199 189.016 226.221C187.932 226.24 186.848 226.254 185.771 226.273C184.698 226.284 183.625 226.364 182.563 226.401C180.432 226.503 178.315 226.599 176.224 226.701C172.053 227.038 167.941 227.269 163.942 227.756C162.942 227.866 161.946 227.972 160.957 228.078C160.463 228.129 159.968 228.184 159.474 228.236C158.983 228.302 158.492 228.371 158.005 228.437C156.053 228.712 154.124 228.983 152.212 229.254C151.256 229.371 150.319 229.55 149.377 229.715C148.44 229.876 147.506 230.041 146.58 230.198C145.657 230.36 144.734 230.517 143.818 230.675C142.899 230.828 142.002 231.041 141.101 231.22C139.303 231.594 137.531 231.964 135.776 232.323C134.037 232.729 132.33 233.161 130.635 233.571C129.792 233.773 128.954 233.981 128.123 234.187C127.291 234.403 126.475 234.644 125.665 234.871C124.039 235.333 122.439 235.787 120.864 236.23C108.333 240.046 97.8003 244.572 89.4617 248.912C87.3486 249.948 85.4297 251.076 83.6023 252.105C82.6978 252.629 81.8042 253.112 80.9583 253.618C80.127 254.138 79.325 254.636 78.5486 255.119C75.4138 257.005 72.8943 258.833 70.8105 260.25C69.7595 260.946 68.8916 261.656 68.1226 262.224C67.3572 262.806 66.709 263.293 66.189 263.685C65.1453 264.472 64.6143 264.882 64.6143 264.882Z" fill="#2C2D4D"/>
<path d="M64.6143 295.208C64.6143 295.208 65.1453 294.798 66.1743 293.996C66.687 293.597 67.3279 293.099 68.0896 292.509C68.8586 291.931 69.7083 291.209 70.7593 290.51C72.821 289.063 75.3296 287.207 78.446 285.284C79.2151 284.79 80.0134 284.277 80.8411 283.749C81.6797 283.233 82.5696 282.742 83.4741 282.208C85.2905 281.157 87.2021 280.01 89.3042 278.945C97.6208 274.521 108.138 269.881 120.67 265.933C133.224 262.081 147.748 258.814 163.832 257.089C167.845 256.573 171.969 256.317 176.158 255.958C178.253 255.844 180.374 255.734 182.512 255.628C183.578 255.577 184.655 255.496 185.735 255.474C186.812 255.452 187.899 255.43 188.99 255.401C190.082 255.379 191.169 255.357 192.272 255.335C192.817 255.317 193.37 255.306 193.92 255.295C194.473 255.288 195.029 255.302 195.579 255.302C197.794 255.313 200.028 255.328 202.277 255.339C203.408 255.335 204.532 255.397 205.664 255.43C206.799 255.463 207.935 255.504 209.077 255.544C210.216 255.581 211.366 255.621 212.512 255.661C213.658 255.727 214.812 255.797 215.969 255.863C225.22 256.331 234.69 257.32 244.34 258.54C246.746 258.873 249.17 259.21 251.605 259.539C254.033 259.905 256.469 260.327 258.922 260.722C260.142 260.924 261.368 261.125 262.599 261.33C263.826 261.561 265.056 261.791 266.283 262.019C268.744 262.491 271.219 262.93 273.699 263.432C278.635 264.49 283.634 265.479 288.618 266.699C289.867 266.992 291.119 267.288 292.375 267.581C293.628 267.874 294.88 268.167 296.129 268.497C298.627 269.145 301.139 269.793 303.655 270.438L305.548 270.928L307.427 271.456C308.683 271.804 309.943 272.159 311.202 272.514C312.455 272.869 313.718 273.217 314.978 273.569L316.875 274.103L318.757 274.678C321.273 275.437 323.796 276.202 326.323 276.967L328.217 277.546L330.106 278.157C331.366 278.564 332.626 278.974 333.885 279.384C338.939 281.003 343.978 282.702 349.025 284.453C354.075 286.196 359.117 287.972 364.167 289.77C374.271 293.377 384.39 297.065 394.512 300.727C414.738 308.088 435.011 315.328 455.24 321.575C475.474 327.801 495.685 333.027 515.563 336.367C516.808 336.575 518.042 336.781 519.28 336.986C520.525 337.169 521.759 337.355 522.997 337.542C525.461 337.93 527.93 338.212 530.38 338.542C531.614 338.707 532.837 338.824 534.06 338.963C535.283 339.095 536.506 339.252 537.726 339.351C540.161 339.571 542.589 339.831 545.006 339.981C554.674 340.692 564.166 340.937 573.395 340.607C591.855 339.981 609.21 337.268 624.792 333.133C632.585 331.079 639.935 328.68 646.824 326.12C648.538 325.461 650.248 324.857 651.899 324.176C653.558 323.494 655.192 322.824 656.803 322.161C658.4 321.48 659.963 320.773 661.512 320.092C662.281 319.744 663.058 319.418 663.805 319.063C664.559 318.704 665.303 318.349 666.042 318.001C671.986 315.229 677.384 312.31 682.357 309.578C683.584 308.868 684.785 308.172 685.961 307.491C687.136 306.806 688.301 306.158 689.403 305.466C690.509 304.785 691.597 304.122 692.648 303.47C693.706 302.822 694.739 302.199 695.724 301.547C703.682 296.512 709.64 292.117 713.73 289.158C717.751 286.112 719.894 284.486 719.894 284.486C719.894 284.486 717.762 286.126 713.763 289.21C709.698 292.194 703.77 296.636 695.841 301.738C694.863 302.397 693.834 303.03 692.783 303.69C691.732 304.342 690.652 305.015 689.55 305.707C688.451 306.407 687.294 307.062 686.118 307.762C684.95 308.45 683.752 309.154 682.526 309.875C677.571 312.651 672.184 315.617 666.251 318.433C654.456 324.179 640.602 329.658 624.983 333.865C609.371 338.077 591.962 340.875 573.431 341.585C554.905 342.288 535.302 340.893 515.372 337.513C495.421 334.191 475.148 328.984 454.871 322.773C434.594 316.544 414.294 309.322 394.05 301.987C383.932 298.306 373.828 294.608 363.735 290.993C358.689 289.188 353.646 287.397 348.607 285.654C343.575 283.9 338.536 282.189 333.497 280.571C332.245 280.161 330.985 279.75 329.729 279.34L327.847 278.729L325.957 278.146C323.438 277.385 320.918 276.619 318.409 275.854L316.531 275.279L314.641 274.744C313.381 274.393 312.122 274.038 310.869 273.682C309.617 273.327 308.361 272.976 307.108 272.62L305.229 272.093L303.344 271.602C300.839 270.954 298.334 270.302 295.836 269.658C294.595 269.324 293.342 269.028 292.094 268.735C290.845 268.442 289.596 268.145 288.347 267.852C283.378 266.625 278.394 265.629 273.468 264.567C271 264.066 268.524 263.623 266.074 263.15C264.847 262.919 263.621 262.689 262.401 262.454C261.174 262.249 259.951 262.048 258.728 261.846C256.289 261.447 253.861 261.03 251.437 260.653C249.012 260.312 246.595 259.968 244.2 259.624C234.576 258.364 225.135 257.342 215.907 256.837C214.761 256.763 213.607 256.69 212.468 256.617C211.318 256.573 210.179 256.533 209.041 256.489C207.902 256.441 206.77 256.397 205.638 256.357C204.51 256.317 203.386 256.258 202.262 256.258C200.017 256.232 197.791 256.21 195.579 256.185C195.029 256.185 194.476 256.166 193.927 256.174C193.381 256.185 192.828 256.196 192.279 256.207C191.188 256.221 190.096 256.243 189.012 256.262C187.921 256.284 186.841 256.302 185.76 256.317C184.688 256.335 183.618 256.416 182.549 256.452C180.417 256.555 178.301 256.657 176.206 256.756C172.028 257.1 167.919 257.335 163.916 257.836C147.872 259.506 133.37 262.648 120.813 266.395C108.285 270.236 97.7527 274.792 89.4104 279.15C87.2974 280.19 85.3784 281.325 83.5583 282.362C82.6538 282.882 81.7566 283.365 80.9216 283.878C80.0867 284.401 79.2883 284.907 78.512 285.39C75.3882 287.291 72.8687 289.125 70.7922 290.554C69.7412 291.249 68.8806 291.964 68.1116 292.539C67.3462 293.124 66.7053 293.612 66.189 294.011C65.1453 294.798 64.6143 295.208 64.6143 295.208Z" fill="#2C2D4D"/>
<path d="M64.6143 322.993C64.6143 322.993 65.1416 322.579 66.1633 321.773C66.676 321.37 67.3132 320.869 68.0713 320.272C68.8367 319.686 69.6863 318.961 70.7263 318.247C72.7844 316.793 75.2747 314.914 78.3801 312.966C79.1492 312.468 79.9475 311.951 80.7678 311.417C81.5991 310.893 82.489 310.391 83.3899 309.853C85.2063 308.795 87.1106 307.637 89.22 306.568C97.522 302.097 108.036 297.402 120.571 293.399C133.129 289.484 147.671 286.145 163.773 284.357C167.794 283.826 171.921 283.559 176.118 283.182C178.22 283.061 180.348 282.944 182.49 282.819C183.556 282.772 184.636 282.687 185.717 282.662C186.801 282.636 187.888 282.607 188.979 282.578C190.067 282.552 191.166 282.523 192.261 282.493C192.814 282.479 193.363 282.468 193.92 282.449C194.473 282.446 195.022 282.449 195.579 282.449C197.802 282.46 200.039 282.471 202.288 282.479C203.419 282.471 204.547 282.53 205.686 282.563C206.821 282.596 207.957 282.629 209.103 282.669C210.245 282.702 211.392 282.742 212.545 282.775C213.691 282.845 214.852 282.911 216.01 282.977C225.278 283.424 234.767 284.394 244.435 285.599C246.852 285.925 249.276 286.258 251.719 286.588C254.154 286.95 256.586 287.364 259.043 287.752C260.27 287.954 261.5 288.151 262.734 288.353C263.958 288.583 265.192 288.811 266.429 289.041C268.89 289.506 271.37 289.946 273.856 290.44C278.804 291.491 283.81 292.469 288.809 293.685C290.057 293.978 291.31 294.271 292.566 294.564C293.826 294.849 295.078 295.146 296.334 295.479C298.839 296.12 301.355 296.761 303.875 297.409L305.768 297.893L307.654 298.413C308.914 298.764 310.173 299.116 311.433 299.467C312.697 299.819 313.956 300.17 315.22 300.522L317.117 301.053L319.006 301.621C321.526 302.386 324.056 303.144 326.587 303.909L328.488 304.488L330.377 305.1C331.637 305.51 332.897 305.92 334.16 306.326C339.229 307.952 344.26 309.652 349.31 311.398C354.364 313.142 359.414 314.925 364.471 316.723C374.575 320.323 384.694 324.011 394.816 327.676C415.034 335.034 435.289 342.277 455.5 348.518C460.558 350.059 465.601 351.583 470.643 352.982C473.159 353.714 475.682 354.373 478.198 355.065C480.714 355.721 483.23 356.395 485.739 357.014C495.787 359.519 505.785 361.694 515.695 363.371C516.936 363.576 518.174 363.785 519.404 363.994C520.642 364.18 521.873 364.364 523.11 364.55C525.568 364.942 528.029 365.231 530.475 365.568C531.698 365.729 532.921 365.85 534.144 365.997C535.364 366.125 536.58 366.282 537.799 366.389C540.227 366.608 542.644 366.879 545.057 367.03C554.703 367.755 564.17 368.026 573.373 367.718C591.782 367.121 609.097 364.477 624.657 360.416C632.439 358.398 639.789 356.032 646.67 353.505C648.387 352.853 650.094 352.253 651.749 351.583C653.408 350.913 655.038 350.25 656.646 349.598C658.257 348.924 659.813 348.221 661.366 347.551C662.135 347.207 662.904 346.888 663.658 346.533C664.413 346.177 665.16 345.826 665.896 345.474C671.84 342.739 677.252 339.846 682.229 337.136C683.452 336.433 684.661 335.74 685.844 335.067C687.019 334.385 688.184 333.745 689.286 333.06C690.399 332.386 691.483 331.727 692.542 331.086C693.596 330.438 694.633 329.819 695.618 329.174C697.595 327.896 699.474 326.71 701.224 325.56C702.96 324.384 704.59 323.286 706.11 322.264C706.868 321.759 707.589 321.249 708.274 320.755C708.966 320.268 709.625 319.799 710.259 319.349C711.519 318.452 712.665 317.635 713.694 316.903C717.74 313.885 719.894 312.27 719.894 312.27C719.894 312.27 717.773 313.929 713.796 317.038C709.746 320.048 703.861 324.556 695.947 329.687C694.969 330.35 693.948 330.991 692.893 331.65C691.842 332.313 690.769 332.987 689.667 333.682C688.572 334.393 687.411 335.056 686.243 335.751C685.074 336.451 683.873 337.158 682.654 337.883C677.706 340.692 672.33 343.684 666.405 346.529C654.606 352.337 640.759 357.882 625.118 362.155C617.296 364.287 609.034 366.085 600.392 367.436C591.753 368.784 582.744 369.663 573.457 370.043C554.875 370.791 535.221 369.436 515.237 366.085C495.242 362.778 474.913 357.633 454.611 351.403C434.308 345.174 413.99 337.945 393.746 330.614C383.628 326.929 373.524 323.231 363.435 319.613C358.392 317.811 353.353 316.02 348.322 314.277C343.293 312.523 338.251 310.812 333.226 309.201C323.188 305.876 313.125 302.943 303.131 300.214C300.623 299.555 298.125 298.903 295.635 298.259C294.393 297.918 293.145 297.622 291.896 297.329C290.647 297.032 289.406 296.732 288.16 296.435C283.202 295.205 278.225 294.201 273.311 293.128C270.85 292.626 268.378 292.18 265.931 291.707C264.708 291.469 263.489 291.235 262.266 291.004C261.042 290.795 259.819 290.594 258.6 290.389C256.165 289.986 253.74 289.565 251.323 289.188C248.906 288.832 246.493 288.488 244.098 288.14C234.503 286.862 225.081 285.819 215.874 285.295C214.72 285.222 213.574 285.148 212.432 285.072C211.293 285.024 210.15 284.98 209.015 284.936C207.88 284.892 206.748 284.844 205.616 284.793C204.492 284.757 203.368 284.687 202.247 284.687C200.01 284.661 197.783 284.632 195.579 284.61C195.029 284.603 194.484 284.588 193.931 284.592C193.385 284.599 192.836 284.61 192.29 284.614C191.195 284.632 190.107 284.643 189.023 284.661C187.939 284.676 186.859 284.694 185.782 284.705C184.709 284.716 183.64 284.79 182.574 284.83C180.447 284.925 178.334 285.013 176.246 285.108C172.075 285.434 167.97 285.654 163.971 286.134C162.971 286.24 161.975 286.346 160.986 286.448C160.492 286.503 159.994 286.555 159.507 286.606C159.016 286.672 158.529 286.741 158.038 286.807C156.086 287.071 154.16 287.342 152.252 287.602C151.296 287.719 150.355 287.899 149.418 288.056C148.48 288.221 147.546 288.378 146.624 288.54C145.697 288.697 144.774 288.854 143.855 289.008C142.939 289.158 142.039 289.371 141.141 289.547C139.347 289.913 137.571 290.279 135.82 290.638C134.084 291.037 132.374 291.466 130.682 291.868C129.836 292.07 129.001 292.275 128.167 292.476C127.343 292.696 126.526 292.93 125.709 293.157C124.083 293.612 122.487 294.062 120.912 294.505C108.384 298.284 97.8479 302.785 89.502 307.103C81.156 311.439 74.9414 315.482 70.8252 318.382C69.7705 319.074 68.9026 319.785 68.1262 320.352C67.3608 320.931 66.7163 321.414 66.1926 321.806C65.1526 322.59 64.6143 322.993 64.6143 322.993Z" fill="#2C2D4D"/>
<mask id="mask0_179_89" style="mask-type:luminance" maskUnits="userSpaceOnUse" x="0" y="130" width="107" height="269">
<path d="M0.105957 130.812H106.637V398.846H0.105957V130.812Z" fill="white"/>
</mask>
<g mask="url(#mask0_179_89)">
<path fill-rule="evenodd" clip-rule="evenodd" d="M63.1897 318.17C91.007 318.045 96.5515 265.761 63.7463 265.593C61.5747 280.629 62.9589 301.665 63.1897 318.17ZM20.9912 301.247C27.3303 312.142 39.4702 318.485 59.685 319.052C58.7255 302.155 59.9267 283.394 59.1064 266.384C37.0935 264.128 32.4755 301.394 51.4416 306.986C15.0842 302.631 27.9528 246.425 59.3371 248.081C57.7478 240.965 60.1025 230.429 57.7404 223.933C36.372 235.615 2.21187 268.98 20.9912 301.247ZM100.979 151.708C100.349 146.043 97.2436 141.528 92.6403 140.781C73.7292 137.672 63.6731 181.47 61.6479 202.498C78.2885 195.233 103.66 176.439 100.979 151.708ZM62.4646 222.006C61.7431 231.143 62.384 239.101 62.8344 247.209C118.843 244.144 108.552 326.962 62.7502 323.853C61.604 351.037 66.5149 384.011 49.3615 394.92C24.2468 410.898 -1.75786 373.977 17.8381 358.211C26.4367 351.275 47.0324 357.911 42.8686 374.98C37.0239 382.264 23.5693 373.804 21.3354 372.204C17.2192 381.312 23.1298 389.16 29.0625 391.097C60.9521 401.45 60.0915 351.099 59.2602 324.732C20.094 321.773 -5.53349 297.131 1.17183 260.847C6.81514 230.305 36.2548 220.036 57.9052 206.787C59.5019 177.446 65.1416 134.277 87.6526 131.256C103.125 129.168 106.941 148.435 105.97 161.241C103.594 192.64 78.8781 207.636 62.4646 222.006Z" fill="#2C2D4D"/>
</g>
<path fill-rule="evenodd" clip-rule="evenodd" d="M421.952 213.906C416.283 222.46 415.737 237.464 412.657 248.26C407.567 256.368 386.18 254.182 387.268 243.367C388.268 233.483 405.341 231.627 412.489 240.31C416.44 225.284 418.579 209.127 423.292 196.979C425.482 207.834 446.462 222.871 427.2 233.194C431.382 227.489 431.096 216.488 421.952 213.906Z" fill="#2C2D4D"/>
<path fill-rule="evenodd" clip-rule="evenodd" d="M688.015 234.644C688.238 244.909 696.346 257.54 699.975 268.167C700.411 277.733 681.599 288.129 676.322 278.626C671.51 269.94 684.477 258.675 695.295 261.733C689.978 247.136 682.518 232.645 679.468 219.981C687.458 227.646 713.262 228.034 703.319 247.502C703.506 240.427 696.998 231.557 688.015 234.644Z" fill="#2C2D4D"/>
<path fill-rule="evenodd" clip-rule="evenodd" d="M512.421 259.466C505.115 274.51 499.307 292.656 491.378 306.411C483.171 310.41 467.446 304.741 469.391 295.9C471.463 286.448 489.214 287.056 494.7 296.717C497.992 287.939 501.742 280.117 505.239 271.778C495.619 266.223 481.003 263.095 469.424 258.499C462.546 265.911 459.635 281.472 454.101 291.649C446.206 298.116 427.818 291.773 430.928 281.713C433.671 272.833 450.692 274.312 455.943 283.405C461.089 269.932 466.589 257.214 472.775 245.858C485.995 250.399 499.193 254.929 512.421 259.466Z" fill="#2C2D4D"/>
<path fill-rule="evenodd" clip-rule="evenodd" d="M639.957 217.224C642.55 233.747 648.157 251.948 649.504 267.772C645.062 275.74 628.912 280.084 625.459 271.716C621.76 262.769 636.672 253.123 646.699 257.921C644.381 248.835 642.989 240.277 641.1 231.429C630.022 232.37 616.245 238.156 604.112 240.994C602.706 251.01 609.203 265.446 610.481 276.956C607.694 286.774 588.981 292.077 585.787 282.047C582.96 273.195 597.777 264.674 607.284 269.138C603.805 255.145 601.054 241.562 599.645 228.708C613.088 224.877 626.51 221.062 639.957 217.224Z" fill="#2C2D4D"/>
<path fill-rule="evenodd" clip-rule="evenodd" d="M297.796 312.237C298.184 295.52 301.322 276.737 300.56 260.872C295.097 253.563 278.518 251.402 276.207 260.158C273.721 269.515 289.786 277.092 299.088 271.013C297.997 280.325 297.752 288.99 297.048 298.01C285.945 298.544 271.524 294.641 259.124 293.432C256.395 283.691 260.922 268.526 260.665 256.947C256.597 247.586 237.349 244.807 235.51 255.178C233.884 264.326 249.697 270.804 258.534 265.12C256.941 279.454 256.015 293.275 256.318 306.202C270.158 308.216 283.96 310.223 297.796 312.237Z" fill="#2C2D4D"/>
<path fill-rule="evenodd" clip-rule="evenodd" d="M242.651 164.039C239.019 173.637 241.809 188.385 241.198 199.594C238.03 208.632 216.683 211.229 215.35 200.444C214.138 190.585 230.376 184.993 239.268 191.882C239.802 176.354 238.304 160.124 240.205 147.237C244.75 157.337 268.535 167.353 252.037 181.679C254.854 175.19 252.14 164.533 242.651 164.039Z" fill="#2C2D4D"/>
<path fill-rule="evenodd" clip-rule="evenodd" d="M157.859 221.853C156.79 232.059 163.246 245.612 165.513 256.61C164.747 266.153 144.778 274.104 140.735 264.018C137.051 254.793 151.329 245.246 161.682 249.637C158.236 234.487 152.662 219.176 151.216 206.23C158.178 214.84 183.732 218.461 171.427 236.523C172.5 229.536 167.161 219.912 157.859 221.853Z" fill="#2C2D4D"/>
<mask id="mask1_179_89" style="mask-type:luminance" maskUnits="userSpaceOnUse" x="127" y="127" width="68" height="61">
<path d="M127.5 127.099H194.062V187.062H127.5V127.099Z" fill="white"/>
</mask>
<g mask="url(#mask1_179_89)">
<path fill-rule="evenodd" clip-rule="evenodd" d="M193.905 127.095C193.11 143.802 194.912 162.764 193.033 178.53C187.068 185.437 170.376 186.414 168.688 177.519C166.871 168.016 183.435 161.589 192.279 168.312C191.847 158.945 192.217 150.28 192.151 141.239C181.117 139.916 166.458 142.788 154.003 143.121C150.593 152.646 154.036 168.093 152.959 179.628C148.242 188.674 128.848 190.087 127.745 179.61C126.768 170.371 143.002 165.028 151.41 171.326C150.835 156.916 150.886 143.059 152.106 130.186C166.047 129.154 179.963 128.128 193.905 127.095Z" fill="#2C2D4D"/>
</g>
<path fill-rule="evenodd" clip-rule="evenodd" d="M357.92 200.722C353.335 213.554 349.691 227.697 346.549 242.558C339.595 233.956 321.625 235.201 320.233 244.891C318.64 255.874 338.818 259.462 345.982 251.439C350.068 239.936 358.184 203.948 358.949 200.938C358.601 200.88 358.264 200.781 357.92 200.722Z" fill="#2C2D4D"/>
<path fill-rule="evenodd" clip-rule="evenodd" d="M558.19 293C553.605 305.832 549.961 319.975 546.819 334.843C539.861 326.234 521.895 327.482 520.499 337.169C518.91 348.159 539.085 351.74 546.251 343.72C550.338 332.221 558.454 296.234 559.219 293.22C558.867 293.161 558.53 293.062 558.19 293Z" fill="#2C2D4D"/>
</svg>
